<svg width="87" height="79" viewBox="0 0 87 79" fill="none" xmlns="http://www.w3.org/2000/svg">
<g filter="url(#filter0_f_6_470)">
<rect x="28.5" y="28" width="30" height="23" rx="11.5" fill="#DD7DF7"/>
</g>
<path d="M46.5475 32.4693C46.6881 32.3289 46.8787 32.25 47.0775 32.25C47.2762 32.25 47.4668 32.3289 47.6075 32.4693L54.1075 38.9693C54.2479 39.11 54.3268 39.3006 54.3268 39.4993C54.3268 39.6981 54.2479 39.8887 54.1075 40.0293L47.6075 46.5293C47.5158 46.6281 47.3992 46.7002 47.2699 46.7383C47.1407 46.7763 47.0036 46.7787 46.8731 46.7453C46.7425 46.712 46.6234 46.644 46.5283 46.5486C46.4332 46.4532 46.3655 46.334 46.3325 46.2033C46.299 46.073 46.3014 45.936 46.3392 45.8068C46.377 45.6777 46.449 45.5611 46.5475 45.4693L52.5175 39.4993L46.5475 33.5293C46.407 33.3887 46.3281 33.1981 46.3281 32.9993C46.3281 32.8006 46.407 32.61 46.5475 32.4693ZM40.1075 32.4693C40.2479 32.61 40.3268 32.8006 40.3268 32.9993C40.3268 33.1981 40.2479 33.3887 40.1075 33.5293L34.1375 39.4993L40.1075 45.4693C40.2062 45.561 40.2784 45.6776 40.3164 45.8069C40.3544 45.9361 40.3568 46.0732 40.3235 46.2037C40.2901 46.3343 40.2221 46.4534 40.1267 46.5485C40.0314 46.6437 39.9121 46.7113 39.7815 46.7443C39.6511 46.7778 39.5141 46.7754 39.385 46.7376C39.2558 46.6998 39.1392 46.6278 39.0475 46.5293L32.5475 40.0293C32.407 39.8887 32.3281 39.6981 32.3281 39.4993C32.3281 39.3006 32.407 39.11 32.5475 38.9693L39.0475 32.4693C39.1881 32.3289 39.3787 32.25 39.5775 32.25C39.7762 32.25 39.9668 32.3289 40.1075 32.4693Z" fill="white"/>
<defs>
<filter id="filter0_f_6_470" x="0.5" y="0" width="86" height="79" filterUnits="userSpaceOnUse" color-interpolation-filters="sRGB">
<feFlood flood-opacity="0" result="BackgroundImageFix"/>
<feBlend mode="normal" in="SourceGraphic" in2="BackgroundImageFix" result="shape"/>
<feGaussianBlur stdDeviation="14" result="effect1_foregroundBlur_6_470"/>
</filter>
</defs>
</svg>
