<svg width="438" height="638" viewBox="0 0 438 638" fill="none" xmlns="http://www.w3.org/2000/svg">
<g clip-path="url(#clip0_6_473)">
<path d="M13.6811 635.771V218.5" stroke="url(#paint0_linear_6_473)" stroke-width="2.95937" stroke-linecap="round"/>
<path d="M427.463 14.3037V51.9778C427.463 155.491 343.55 239.404 240.037 239.404H141.391C70.5669 239.404 13.1522 296.819 13.1522 367.644V420.428" stroke="url(#paint1_linear_6_473)" stroke-width="2.95937" stroke-linecap="round"/>
<rect width="3" height="416" rx="1.5" transform="matrix(1 0 0 -1 12 637)" fill="url(#paint2_linear_6_473)"/>
<g filter="url(#filter0_dd_6_473)">
<path d="M14.8508 221.686C19.0607 220.558 21.902 217.51 21.197 214.879C20.4919 212.248 16.5076 211.029 12.2977 212.157C8.08774 213.285 5.24647 216.333 5.95149 218.964C6.65652 221.595 10.6409 222.814 14.8508 221.686Z" fill="white"/>
<path d="M20.2441 215.134C20.4768 216.003 20.1602 217.085 19.1455 218.173C18.1418 219.25 16.5504 220.21 14.5954 220.733C12.6405 221.257 10.7827 221.222 9.37529 220.792C7.95225 220.357 7.13704 219.577 6.90431 218.709C6.6716 217.84 6.98818 216.758 8.00296 215.67C9.00657 214.594 10.598 213.634 12.553 213.11C14.5079 212.586 16.3657 212.622 17.7731 213.052C19.1962 213.487 20.0114 214.266 20.2441 215.134Z" stroke="#9A74D0" stroke-width="1.97291"/>
</g>
<g filter="url(#filter1_dd_6_473)">
<path d="M429.365 15.4482C433.14 13.269 435.096 9.58998 433.733 7.23091C432.371 4.87184 428.208 4.72604 424.433 6.90525C420.658 9.08447 418.703 12.7635 420.065 15.1226C421.427 17.4816 425.591 17.6274 429.365 15.4482Z" fill="white"/>
<path d="M432.879 7.72419C433.329 8.50288 433.303 9.63005 432.605 10.9441C431.914 12.2435 430.625 13.582 428.872 14.5939C427.119 15.6059 425.316 16.0529 423.845 16.0014C422.357 15.9493 421.369 15.4081 420.919 14.6294C420.469 13.8506 420.495 12.7235 421.193 11.4096C421.885 10.11 423.173 8.77156 424.926 7.7596C426.679 6.74764 428.482 6.30063 429.953 6.35212C431.441 6.4042 432.43 6.9455 432.879 7.72419Z" stroke="#9A74D0" stroke-width="1.97291"/>
</g>
</g>
<defs>
<filter id="filter0_dd_6_473" x="0.911841" y="206.804" width="23.3518" height="18.2618" filterUnits="userSpaceOnUse" color-interpolation-filters="sRGB">
<feFlood flood-opacity="0" result="BackgroundImageFix"/>
<feColorMatrix in="SourceAlpha" type="matrix" values="0 0 0 0 0 0 0 0 0 0 0 0 0 0 0 0 0 0 127 0" result="hardAlpha"/>
<feOffset dx="-0.986455" dy="-0.986455"/>
<feGaussianBlur stdDeviation="1.97291"/>
<feComposite in2="hardAlpha" operator="out"/>
<feColorMatrix type="matrix" values="0 0 0 0 0 0 0 0 0 0 0 0 0 0 0 0 0 0 0.15 0"/>
<feBlend mode="normal" in2="BackgroundImageFix" result="effect1_dropShadow_6_473"/>
<feColorMatrix in="SourceAlpha" type="matrix" values="0 0 0 0 0 0 0 0 0 0 0 0 0 0 0 0 0 0 127 0" result="hardAlpha"/>
<feOffset dx="-0.986455" dy="-0.986455"/>
<feGaussianBlur stdDeviation="0.986455"/>
<feComposite in2="hardAlpha" operator="out"/>
<feColorMatrix type="matrix" values="0 0 0 0 0 0 0 0 0 0 0 0 0 0 0 0 0 0 0.15 0"/>
<feBlend mode="normal" in2="effect1_dropShadow_6_473" result="effect2_dropShadow_6_473"/>
<feBlend mode="normal" in="SourceGraphic" in2="effect2_dropShadow_6_473" result="shape"/>
</filter>
<filter id="filter1_dd_6_473" x="414.699" y="0.429541" width="22.4271" height="19.5215" filterUnits="userSpaceOnUse" color-interpolation-filters="sRGB">
<feFlood flood-opacity="0" result="BackgroundImageFix"/>
<feColorMatrix in="SourceAlpha" type="matrix" values="0 0 0 0 0 0 0 0 0 0 0 0 0 0 0 0 0 0 127 0" result="hardAlpha"/>
<feOffset dx="-0.986455" dy="-0.986455"/>
<feGaussianBlur stdDeviation="1.97291"/>
<feComposite in2="hardAlpha" operator="out"/>
<feColorMatrix type="matrix" values="0 0 0 0 0 0 0 0 0 0 0 0 0 0 0 0 0 0 0.15 0"/>
<feBlend mode="normal" in2="BackgroundImageFix" result="effect1_dropShadow_6_473"/>
<feColorMatrix in="SourceAlpha" type="matrix" values="0 0 0 0 0 0 0 0 0 0 0 0 0 0 0 0 0 0 127 0" result="hardAlpha"/>
<feOffset dx="-0.986455" dy="-0.986455"/>
<feGaussianBlur stdDeviation="0.986455"/>
<feComposite in2="hardAlpha" operator="out"/>
<feColorMatrix type="matrix" values="0 0 0 0 0 0 0 0 0 0 0 0 0 0 0 0 0 0 0.15 0"/>
<feBlend mode="normal" in2="effect1_dropShadow_6_473" result="effect2_dropShadow_6_473"/>
<feBlend mode="normal" in="SourceGraphic" in2="effect2_dropShadow_6_473" result="shape"/>
</filter>
<linearGradient id="paint0_linear_6_473" x1="nan" y1="nan" x2="nan" y2="nan" gradientUnits="userSpaceOnUse">
<stop stop-color="#D2A8FF"/>
<stop offset="0.0908581" stop-color="#A371F7"/>
<stop offset="0.599056" stop-color="#6639BA"/>
<stop offset="0.902019" stop-color="#6639BA"/>
<stop offset="1" stop-color="#D2A8FF" stop-opacity="0"/>
</linearGradient>
<linearGradient id="paint1_linear_6_473" x1="-116.073" y1="538.605" x2="395.884" y2="-33.2059" gradientUnits="userSpaceOnUse">
<stop stop-color="#A371F7"/>
<stop offset="0.00733964" stop-color="#9E72D3"/>
<stop offset="0.251918" stop-color="#6639BA" stop-opacity="0"/>
<stop offset="0.325848" stop-color="#6639BA"/>
<stop offset="0.945217" stop-color="#6639BA"/>
<stop offset="1" stop-color="#6639BA" stop-opacity="0"/>
</linearGradient>
<linearGradient id="paint2_linear_6_473" x1="1.5" y1="0" x2="1.5" y2="416" gradientUnits="userSpaceOnUse">
<stop stop-color="#D2A8FF"/>
<stop offset="0.1" stop-color="#A371F7"/>
<stop offset="0.688361" stop-color="#4C2E8E"/>
<stop offset="0.932292" stop-color="#6639BA"/>
<stop offset="1" stop-color="#6639BA" stop-opacity="0"/>
</linearGradient>
<clipPath id="clip0_6_473">
<rect width="437" height="637.25" fill="white" transform="translate(0.328308)"/>
</clipPath>
</defs>
</svg>
